<svg width="14" height="15" viewBox="0 0 14 15" fill="none" xmlns="http://www.w3.org/2000/svg">
<path d="M0 7.5C0 3.63401 3.13401 0.5 7 0.5C10.866 0.5 14 3.63401 14 7.5C14 11.366 10.866 14.5 7 14.5C3.13401 14.5 0 11.366 0 7.5Z" fill="#6FA688"/>
<path fill-rule="evenodd" clip-rule="evenodd" d="M10.7331 3.76666H3.26647V5.63333H6.06647V6.12891C4.19608 6.2468 2.7998 6.71144 2.7998 7.26666C2.7998 7.82188 4.19608 8.28653 6.06647 8.40442V11.2333H7.93314V8.40442C9.80353 8.28653 11.1998 7.82188 11.1998 7.26666C11.1998 6.71144 9.80353 6.2468 7.93314 6.12891V5.63333H10.7331V3.76666ZM3.4998 7.26666C3.4998 6.78162 4.35536 6.27175 6.06647 6.13527V7.73333H7.93314V6.1354C9.77108 6.28326 10.4998 6.86247 10.4998 7.26666C10.4998 7.65026 9.33351 7.87619 7.93314 7.94447C7.33032 7.98824 6.43752 7.95854 6.06647 7.93822C4.6661 7.85276 3.4998 7.58443 3.4998 7.26666Z" fill="white"/>
</svg>
