<svg width="16" height="16" viewBox="0 0 16 16" fill="none" xmlns="http://www.w3.org/2000/svg">
<rect width="16" height="16" rx="4" fill="white"/>
<path d="M1.43391 14V10H4.2895V10.7852H2.42377V11.6055H4.14352V12.3926H2.42377V13.2148H4.2895V14H1.43391Z" fill="#2E333C"/>
<path d="M5.60589 10L6.35378 11.2637H6.38577L7.14166 10H8.24951L7.01368 12L8.2895 14H7.15366L6.38577 12.7227H6.35378L5.58589 14H4.45805L5.72787 12L4.49004 10H5.60589Z" fill="#2E333C"/>
<path d="M8.44695 14V10H10.1387C10.4453 10 10.71 10.0586 10.9326 10.1758C11.1566 10.2917 11.3292 10.4538 11.4505 10.6621C11.5718 10.8691 11.6325 11.11 11.6325 11.3848C11.6325 11.6608 11.5705 11.9023 11.4465 12.1094C11.3239 12.3151 11.1486 12.4746 10.9206 12.5879C10.6926 12.7012 10.422 12.7578 10.1087 12.7578H9.06486V11.9961H9.92474C10.074 11.9961 10.1987 11.9707 10.2987 11.9199C10.4 11.8691 10.4767 11.7982 10.5287 11.707C10.5806 11.6146 10.6066 11.5072 10.6066 11.3848C10.6066 11.2611 10.5806 11.1543 10.5287 11.0645C10.4767 10.9733 10.4 10.903 10.2987 10.8535C10.1974 10.804 10.0727 10.7793 9.92474 10.7793H9.43681V14H8.44695Z" fill="#2E333C"/>
<path d="M11.8064 14V10H12.7962V13.2148H14.5V14H11.8064Z" fill="#2E333C"/>
<path fill-rule="evenodd" clip-rule="evenodd" d="M5.37189 5.00026C5.37189 5.89829 6.09892 6.62628 6.99576 6.62628C7.8926 6.62628 8.61963 5.89829 8.61963 5.00026C8.61963 4.10222 7.8926 3.37423 6.99576 3.37423C6.09892 3.37423 5.37189 4.10222 5.37189 5.00026ZM6.99576 5.96466C6.46384 5.96466 6.03264 5.53288 6.03264 5.00026C6.03264 4.46763 6.46384 4.03585 6.99576 4.03585C7.52768 4.03585 7.95888 4.46763 7.95888 5.00026C7.95888 5.53288 7.52768 5.96466 6.99576 5.96466Z" fill="url(#paint0_linear_946_58)"/>
<path fill-rule="evenodd" clip-rule="evenodd" d="M11.412 7.29912H8.91979C9.02317 7.2123 9.1206 7.11862 9.2114 7.01878H11.5334L12 6.3179H9.68753C9.88223 5.91998 9.99152 5.47257 9.99152 4.99974C9.99152 3.34303 8.65028 2 6.99576 2C5.34125 2 4 3.34303 4 4.99974C4 6.65644 5.34124 8 6.99576 8H10.9454L11.412 7.29912ZM6.99576 7.29861C5.72782 7.29861 4.69994 6.26937 4.69994 4.99974C4.69994 3.73011 5.72782 2.70087 6.99576 2.70087C8.26371 2.70087 9.29158 3.73011 9.29158 4.99974C9.29158 6.26937 8.26371 7.29861 6.99576 7.29861Z" fill="url(#paint1_linear_946_58)"/>
<defs>
<linearGradient id="paint0_linear_946_58" x1="4" y1="2" x2="9.76" y2="9.68" gradientUnits="userSpaceOnUse">
<stop stop-color="#0083C7"/>
<stop offset="1" stop-color="#00AA5B"/>
</linearGradient>
<linearGradient id="paint1_linear_946_58" x1="4" y1="2" x2="9.76" y2="9.68" gradientUnits="userSpaceOnUse">
<stop stop-color="#0083C7"/>
<stop offset="1" stop-color="#00AA5B"/>
</linearGradient>
</defs>
</svg>
