<svg width="18" height="18" viewBox="0 0 18 18" fill="none" xmlns="http://www.w3.org/2000/svg">
<path d="M0 9C0 4.02944 4.02944 0 9 0V0C13.9706 0 18 4.02944 18 9V9C18 13.9706 13.9706 18 9 18V18C4.02944 18 0 13.9706 0 9V9Z" fill="#D8DFE3"/>
<path d="M7.99363 10.7483C7.99363 10.1204 8.06369 9.62576 8.20382 9.26447C8.34395 8.89888 8.57113 8.58275 8.88535 8.31608C9.19958 8.04941 9.43737 7.8064 9.59873 7.58705C9.76433 7.36339 9.84713 7.11823 9.84713 6.85156C9.84713 6.2021 9.57113 5.87737 9.01911 5.87737C8.76433 5.87737 8.55839 5.97199 8.40127 6.16124C8.24416 6.35049 8.16136 6.6064 8.15287 6.92898H6C6.00849 6.06877 6.27601 5.39995 6.80255 4.92253C7.32909 4.44081 8.06794 4.19995 9.01911 4.19995C9.96603 4.19995 10.6985 4.42146 11.2166 4.86447C11.7389 5.30748 12 5.93759 12 6.75479C12 7.11178 11.9299 7.43651 11.7898 7.72898C11.6497 8.02146 11.4246 8.32038 11.1147 8.62576L10.3822 9.31608C10.1741 9.51823 10.0297 9.72683 9.94904 9.94189C9.86837 10.1526 9.82378 10.4215 9.81529 10.7483H7.99363ZM7.73248 12.7096C7.73248 12.3913 7.84501 12.1311 8.07006 11.929C8.29936 11.7225 8.58386 11.6193 8.92357 11.6193C9.26327 11.6193 9.54565 11.7225 9.7707 11.929C10 12.1311 10.1146 12.3913 10.1146 12.7096C10.1146 13.0279 10 13.2903 9.7707 13.4967C9.54565 13.6989 9.26327 13.8 8.92357 13.8C8.58386 13.8 8.29936 13.6989 8.07006 13.4967C7.84501 13.2903 7.73248 13.0279 7.73248 12.7096Z" fill="white"/>
</svg>
