<svg width="32" height="32" viewBox="0 0 32 32" fill="none" xmlns="http://www.w3.org/2000/svg">
<path d="M15.9867 2.66667C8.62675 2.66667 2.66675 8.64 2.66675 16C2.66675 23.36 8.62675 29.3333 15.9867 29.3333C23.3601 29.3333 29.3334 23.36 29.3334 16C29.3334 8.64 23.3601 2.66667 15.9867 2.66667ZM25.2267 10.6667H21.2934C20.8667 9 20.2534 7.4 19.4534 5.92C21.9067 6.76 23.9467 8.46667 25.2267 10.6667ZM16.0001 5.38667C17.1067 6.98667 17.9734 8.76 18.5467 10.6667H13.4534C14.0267 8.76 14.8934 6.98667 16.0001 5.38667ZM5.68008 18.6667C5.46675 17.8133 5.33341 16.92 5.33341 16C5.33341 15.08 5.46675 14.1867 5.68008 13.3333H10.1867C10.0801 14.2133 10.0001 15.0933 10.0001 16C10.0001 16.9067 10.0801 17.7867 10.1867 18.6667H5.68008ZM6.77341 21.3333H10.7067C11.1334 23 11.7467 24.6 12.5467 26.08C10.0934 25.24 8.05341 23.5467 6.77341 21.3333ZM10.7067 10.6667H6.77341C8.05341 8.45333 10.0934 6.76 12.5467 5.92C11.7467 7.4 11.1334 9 10.7067 10.6667ZM16.0001 26.6133C14.8934 25.0133 14.0267 23.24 13.4534 21.3333H18.5467C17.9734 23.24 17.1067 25.0133 16.0001 26.6133ZM19.1201 18.6667H12.8801C12.7601 17.7867 12.6667 16.9067 12.6667 16C12.6667 15.0933 12.7601 14.2 12.8801 13.3333H19.1201C19.2401 14.2 19.3334 15.0933 19.3334 16C19.3334 16.9067 19.2401 17.7867 19.1201 18.6667ZM19.4534 26.08C20.2534 24.6 20.8667 23 21.2934 21.3333H25.2267C23.9467 23.5333 21.9067 25.24 19.4534 26.08ZM21.8134 18.6667C21.9201 17.7867 22.0001 16.9067 22.0001 16C22.0001 15.0933 21.9201 14.2133 21.8134 13.3333H26.3201C26.5334 14.1867 26.6667 15.08 26.6667 16C26.6667 16.92 26.5334 17.8133 26.3201 18.6667H21.8134Z" fill="url(#paint0_linear_18380_49057)" fill-opacity="0.3"/>
<defs>
<linearGradient id="paint0_linear_18380_49057" x1="2.66675" y1="2.66667" x2="29.3334" y2="29.3333" gradientUnits="userSpaceOnUse">
<stop stop-color="#0083C7"/>
<stop offset="0.0001" stop-color="#0083C7"/>
<stop offset="1" stop-color="#103D7C"/>
</linearGradient>
</defs>
</svg>
