<svg width="32" height="32" viewBox="0 0 32 32" fill="none" xmlns="http://www.w3.org/2000/svg">
<path fill-rule="evenodd" clip-rule="evenodd" d="M15.9999 28.4667C22.8851 28.4667 28.4666 22.8852 28.4666 16C28.4666 9.11485 22.8851 3.53334 15.9999 3.53334C9.11477 3.53334 3.53325 9.11485 3.53325 16C3.53325 22.8852 9.11477 28.4667 15.9999 28.4667ZM15.9999 30.6667C24.1001 30.6667 30.6666 24.1002 30.6666 16C30.6666 7.89983 24.1001 1.33334 15.9999 1.33334C7.89974 1.33334 1.33325 7.89983 1.33325 16C1.33325 24.1002 7.89974 30.6667 15.9999 30.6667Z" fill="url(#paint0_linear_18421_49083)" fill-opacity="0.3"/>
<path d="M5.75509 20.0434V13.2159H7.29307V14.3761H7.37308C7.51532 13.9849 7.75091 13.6797 8.07984 13.4604C8.40877 13.2381 8.80141 13.127 9.25776 13.127C9.72005 13.127 10.1097 13.2396 10.4268 13.4648C10.7468 13.6871 10.9721 13.9908 11.1024 14.3761H11.1736C11.3247 13.9967 11.5795 13.6945 11.9381 13.4693C12.2996 13.2411 12.7278 13.127 13.2227 13.127C13.8509 13.127 14.3636 13.3255 14.7607 13.7226C15.1578 14.1197 15.3563 14.6991 15.3563 15.4606V20.0434H13.7428V15.7096C13.7428 15.2858 13.6302 14.9761 13.405 14.7805C13.1797 14.582 12.9042 14.4827 12.5782 14.4827C12.19 14.4827 11.8862 14.6042 11.667 14.8472C11.4506 15.0873 11.3425 15.3999 11.3425 15.7851V20.0434H9.7645V15.6429C9.7645 15.2902 9.65782 15.0087 9.44446 14.7983C9.23406 14.5879 8.95847 14.4827 8.61768 14.4827C8.38654 14.4827 8.17615 14.542 7.98649 14.6605C7.79684 14.7761 7.64571 14.9406 7.5331 15.1539C7.42049 15.3643 7.36419 15.6103 7.36419 15.8918V20.0434H5.75509Z" fill="url(#paint1_linear_18421_49083)" fill-opacity="0.3"/>
<path d="M16.9888 20.0434V13.2159H18.5978V20.0434H16.9888ZM17.7977 12.2469C17.5429 12.2469 17.3236 12.1624 17.1399 11.9935C16.9562 11.8217 16.8643 11.6157 16.8643 11.3757C16.8643 11.1327 16.9562 10.9267 17.1399 10.7578C17.3236 10.5859 17.5429 10.5 17.7977 10.5C18.0556 10.5 18.2748 10.5859 18.4556 10.7578C18.6393 10.9267 18.7312 11.1327 18.7312 11.3757C18.7312 11.6157 18.6393 11.8217 18.4556 11.9935C18.2748 12.1624 18.0556 12.2469 17.7977 12.2469Z" fill="url(#paint2_linear_18421_49083)" fill-opacity="0.3"/>
<path d="M21.8616 16.0429V20.0434H20.2525V13.2159H21.7905V14.3761H21.8705C22.0275 13.9938 22.2779 13.69 22.6217 13.4648C22.9684 13.2396 23.3966 13.127 23.9063 13.127C24.3775 13.127 24.7879 13.2278 25.1376 13.4293C25.4902 13.6308 25.7628 13.9227 25.9555 14.3049C26.151 14.6872 26.2473 15.151 26.2444 15.6962V20.0434H24.6353V15.9451C24.6353 15.4888 24.5168 15.1317 24.2797 14.8739C24.0456 14.6161 23.7211 14.4872 23.3062 14.4872C23.0247 14.4872 22.7743 14.5494 22.555 14.6739C22.3387 14.7954 22.1683 14.9717 22.0438 15.2028C21.9223 15.434 21.8616 15.714 21.8616 16.0429Z" fill="url(#paint3_linear_18421_49083)" fill-opacity="0.3"/>
<defs>
<linearGradient id="paint0_linear_18421_49083" x1="1.33325" y1="1.33334" x2="30.6666" y2="30.6667" gradientUnits="userSpaceOnUse">
<stop stop-color="#0083C7"/>
<stop offset="0.0001" stop-color="#0083C7"/>
<stop offset="1" stop-color="#103D7C"/>
</linearGradient>
<linearGradient id="paint1_linear_18421_49083" x1="1.33325" y1="1.33334" x2="30.6666" y2="30.6667" gradientUnits="userSpaceOnUse">
<stop stop-color="#0083C7"/>
<stop offset="0.0001" stop-color="#0083C7"/>
<stop offset="1" stop-color="#103D7C"/>
</linearGradient>
<linearGradient id="paint2_linear_18421_49083" x1="1.33325" y1="1.33334" x2="30.6666" y2="30.6667" gradientUnits="userSpaceOnUse">
<stop stop-color="#0083C7"/>
<stop offset="0.0001" stop-color="#0083C7"/>
<stop offset="1" stop-color="#103D7C"/>
</linearGradient>
<linearGradient id="paint3_linear_18421_49083" x1="1.33325" y1="1.33334" x2="30.6666" y2="30.6667" gradientUnits="userSpaceOnUse">
<stop stop-color="#0083C7"/>
<stop offset="0.0001" stop-color="#0083C7"/>
<stop offset="1" stop-color="#103D7C"/>
</linearGradient>
</defs>
</svg>
