<svg width="32" height="32" viewBox="0 0 32 32" fill="none" xmlns="http://www.w3.org/2000/svg">
<path d="M17.1959 29.2907C16.4879 29.2928 15.8085 29.0114 15.3092 28.5093L4.86391 18.0627C4.31269 17.513 4.03006 16.7494 4.09058 15.9733L4.75724 7.21867C4.85231 5.90185 5.9015 4.85549 7.21858 4.764L15.9732 4.09733C16.0412 4.08267 16.1106 4.08267 16.1786 4.08267C16.885 4.08448 17.5622 4.36531 18.0626 4.864L28.5092 15.3093C29.0096 15.8095 29.2907 16.4879 29.2907 17.1953C29.2907 17.9028 29.0096 18.5812 28.5092 19.0813L19.0812 28.5093C18.5824 29.0111 17.9035 29.2924 17.1959 29.2907ZM16.1772 6.74933L7.41591 7.416L6.74924 16.1773L17.1959 26.624L26.6226 17.1973L16.1772 6.74933ZM11.5386 14.2053C10.2664 14.2056 9.17113 13.3071 8.92268 12.0594C8.67424 10.8117 9.34179 9.56224 10.5171 9.07518C11.6924 8.58811 13.048 8.99909 13.755 10.0568C14.462 11.1145 14.3234 12.5243 13.4239 13.424C12.925 13.9258 12.2461 14.2071 11.5386 14.2053Z" fill="url(#paint0_linear_18379_49041)" fill-opacity="0.3"/>
<defs>
<linearGradient id="paint0_linear_18379_49041" x1="4.08252" y1="4.08267" x2="29.2905" y2="29.2908" gradientUnits="userSpaceOnUse">
<stop stop-color="#0083C7"/>
<stop offset="0.0001" stop-color="#0083C7"/>
<stop offset="1" stop-color="#103D7C"/>
</linearGradient>
</defs>
</svg>
