<svg width="24" height="24" viewBox="0 0 24 24" fill="none" xmlns="http://www.w3.org/2000/svg">
<path d="M0 12C0 5.37258 5.37258 0 12 0C18.6274 0 24 5.37258 24 12C24 18.6274 18.6274 24 12 24C5.37258 24 0 18.6274 0 12Z" fill="url(#paint0_linear_18590_908)"/>
<path fill-rule="evenodd" clip-rule="evenodd" d="M21.6009 19.2H20.2499H12.0015C8.02426 19.2 4.80005 15.9765 4.80005 12C4.80005 8.02355 8.02426 4.8 12.0015 4.8C15.9788 4.8 19.203 8.02355 19.203 12C19.203 13.0707 18.9692 14.0867 18.55 15H23.622C23.4763 15.5661 23.2903 16.1161 23.0673 16.6467H22.8037H17.5027C17.2087 16.9943 16.8824 17.3136 16.5283 17.6H21.8502H22.616C22.3193 18.1612 21.9795 18.696 21.6009 19.2ZM12.0015 17.6C15.0949 17.6 17.6027 15.0928 17.6027 12C17.6027 8.90721 15.0949 6.4 12.0015 6.4C8.90809 6.4 6.40038 8.90721 6.40038 12C6.40038 15.0928 8.90809 17.6 12.0015 17.6ZM16.0023 12C16.0023 14.2091 14.2111 16 12.0015 16C9.79193 16 8.0007 14.2091 8.0007 12C8.0007 9.79086 9.79193 8 12.0015 8C14.2111 8 16.0023 9.79086 16.0023 12ZM14.402 12C14.402 13.3255 13.3273 14.4 12.0015 14.4C10.6758 14.4 9.60103 13.3255 9.60103 12C9.60103 10.6745 10.6758 9.6 12.0015 9.6C13.3273 9.6 14.402 10.6745 14.402 12Z" fill="white"/>
<defs>
<linearGradient id="paint0_linear_18590_908" x1="0" y1="0" x2="24" y2="24" gradientUnits="userSpaceOnUse">
<stop stop-color="#0083C7"/>
<stop offset="1" stop-color="#103D7C"/>
</linearGradient>
</defs>
</svg>
