<svg width="24" height="24" viewBox="0 0 24 24" fill="none" xmlns="http://www.w3.org/2000/svg">
<rect width="24" height="24" rx="12" fill="url(#paint0_linear_18380_49195)"/>
<path d="M10.5456 4.32001H11.7093V6.6385H10.5456V4.32001Z" fill="white"/>
<path d="M10.5456 17.3615H11.7093V19.68H10.5456V17.3615Z" fill="white"/>
<path d="M12.2911 4.32001H13.4547V6.6385H12.2911V4.32001Z" fill="white"/>
<path d="M12.2911 17.3615H13.4547V19.68H12.2911V17.3615Z" fill="white"/>
<path fill-rule="evenodd" clip-rule="evenodd" d="M7.92494 8.23735C8.42257 7.61476 9.16459 7.21812 10.0962 7.21812H16.4983V8.21435H10.0962C9.48041 8.21435 9.02599 8.46525 8.71403 8.85554C8.39267 9.2576 8.20646 9.83132 8.20646 10.4727C8.20646 11.065 8.43484 11.5181 8.78545 11.8281C9.14211 12.1434 9.65158 12.3325 10.2373 12.3325H12.6743C12.6743 12.3325 12.6743 12.3325 12.6743 12.8306C12.6743 13.3287 12.6743 13.3287 12.6743 13.3287H10.2373C9.43638 13.3287 8.67886 13.0695 8.1152 12.5712C7.54548 12.0675 7.20019 11.3416 7.20019 10.4727C7.20019 9.65267 7.43671 8.84817 7.92494 8.23735ZM8.82391 10.2734C8.82391 9.47521 9.47993 8.83213 10.2842 8.83213H16.4983V9.82835H10.2842C10.0312 9.82835 9.83018 10.0298 9.83018 10.2734C9.83018 10.3467 9.8718 10.4527 9.99856 10.5565C10.1255 10.6604 10.2887 10.7185 10.4253 10.7185H13.3286C14.4829 10.7185 15.3631 11.0754 15.9552 11.6671C16.5427 12.2542 16.8002 13.0264 16.8002 13.7738C16.8002 14.5 16.5905 15.2629 16.0347 15.8476C15.4723 16.4392 14.6191 16.7819 13.4696 16.7819H7.70333V15.7857H13.4696C14.4134 15.7857 14.9739 15.51 15.3019 15.1649C15.6365 14.8129 15.7939 14.3208 15.7939 13.7738C15.7939 13.2479 15.6138 12.7415 15.2404 12.3683C14.8715 11.9997 14.2675 11.7147 13.3286 11.7147H10.4253C10.0332 11.7147 9.64733 11.5617 9.35729 11.3242C9.06709 11.0866 8.82391 10.721 8.82391 10.2734ZM14.064 13.5508C13.9685 13.4758 13.6395 13.3287 12.6743 13.3287L12.6743 12.8306L12.6743 12.3325C13.6652 12.3325 14.3052 12.4684 14.6897 12.7706C15.1185 13.1077 15.1164 13.5574 15.1154 13.7501C15.1154 13.7585 15.1153 13.7664 15.1153 13.7738C15.1153 13.7812 15.1154 13.7891 15.1154 13.7975C15.1164 13.9901 15.1185 14.4398 14.6897 14.7769C14.3052 15.0792 13.6653 15.215 12.6743 15.215H7.70333V14.2188H12.6743C13.6395 14.2188 13.9685 14.0718 14.064 13.9967C14.0659 13.9952 14.0677 13.9938 14.0695 13.9925C14.0978 13.9709 14.1091 13.9623 14.1091 13.7738C14.1091 13.5852 14.0978 13.5766 14.0695 13.555C14.0677 13.5537 14.0659 13.5523 14.064 13.5508Z" fill="white"/>
<path fill-rule="evenodd" clip-rule="evenodd" d="M8.03058 4.6741C8.15561 4.87935 8.08995 5.14671 7.88392 5.27127C5.59755 6.65353 4.07292 9.15044 4.07292 12C4.07292 14.8496 5.59755 17.3465 7.88392 18.7287C8.08995 18.8533 8.15561 19.1207 8.03058 19.3259C7.90555 19.5312 7.63718 19.5966 7.43115 19.472C4.89567 17.9392 3.2002 15.1667 3.2002 12C3.2002 8.83329 4.89567 6.06086 7.43115 4.52799C7.63718 4.40343 7.90555 4.46885 8.03058 4.6741ZM16.1359 4.76548C16.2655 4.5631 16.5353 4.50376 16.7385 4.63293C19.1798 6.18526 20.8002 8.90428 20.8002 12C20.8002 15.0957 19.1798 17.8148 16.7385 19.3671C16.5353 19.4963 16.2655 19.4369 16.1359 19.2345C16.0062 19.0322 16.0658 18.7634 16.2689 18.6342C18.4704 17.2344 19.9275 14.7858 19.9275 12C19.9275 9.21424 18.4704 6.76563 16.2689 5.36581C16.0658 5.23664 16.0062 4.96786 16.1359 4.76548Z" fill="white"/>
<defs>
<linearGradient id="paint0_linear_18380_49195" x1="0" y1="0" x2="24" y2="24" gradientUnits="userSpaceOnUse">
<stop stop-color="#0083C7"/>
<stop offset="0.0001" stop-color="#0083C7"/>
<stop offset="1" stop-color="#103D7C"/>
</linearGradient>
</defs>
</svg>
